<svg id="Group_2" data-name="Group 2" xmlns="http://www.w3.org/2000/svg" xmlns:xlink="http://www.w3.org/1999/xlink" width="484.961" height="236.612" viewBox="0 0 484.961 236.612">
  <defs>
    <clipPath id="clip-path">
      <rect id="Rectangle_1" data-name="Rectangle 1" width="484.961" height="236.612" fill="#026399"/>
    </clipPath>
  </defs>
  <g id="Group_1" data-name="Group 1" clip-path="url(#clip-path)">
    <path id="Path_1" data-name="Path 1" d="M746.958,66.707l2.642,1.874c1.674,1.189,3.326,2.408,5.053,3.52.847.545,1.726,1.044,2.545,1.628a6.053,6.053,0,0,1,2.51,4.233,35.087,35.087,0,0,1,.128,5.063c.009,4.847-.021,9.695-.024,14.542q-.023,35.417-.04,70.833-.006,12.577,0,25.154v.461c-.533-.216-1.04-.423-1.549-.626a183.048,183.048,0,0,0-19.031-6.26q-9.635-2.666-19.449-4.578c-4.068-.8-8.152-1.489-12.26-2.05-3.135-.428-6.277-.781-9.433-1.011a76.3,76.3,0,0,0-9.974-.146c-1.179.069-2.352.215-3.523.378-.905.126-1.824.158-2.737.224q-3.936.284-7.84.862a81.722,81.722,0,0,0-10.451,2.209,58.935,58.935,0,0,0-17.453,8.013,89.914,89.914,0,0,0-7.137,5.711c-1.007.855-2.025,1.7-3.038,2.547-.069.058-.144.108-.243.182a.75.75,0,0,1,.16-.4,38.774,38.774,0,0,1,7.33-9.259,60.287,60.287,0,0,1,10.627-8.373,57.5,57.5,0,0,1,14.19-5.864,105.136,105.136,0,0,1,12.232-2.515c2.749-.412,5.5-.82,8.267-1.08a85.146,85.146,0,0,1,9.831-.338q3.739.081,7.465.4c2.551.22,5.093.516,7.629.873,4.3.606,8.567,1.394,12.808,2.322,3.295.721,6.565,1.543,9.824,2.414,3.1.827,6.17,1.726,9.234,2.659.49.149.983.29,1.468.455.2.069.25.007.236-.179-.007-.092,0-.185,0-.278V66.707Z" transform="translate(-451.262 -47.356)" fill="#026399"/>
    <path id="Path_2" data-name="Path 2" d="M611.239,146.972a89.373,89.373,0,0,1,11.579-17.562,51.158,51.158,0,0,1,14.99-12.286,60.484,60.484,0,0,1,13.239-4.9A96.578,96.578,0,0,1,662.915,110a126.624,126.624,0,0,1,19.577-.8c3.071.095,6.138.278,9.2.525,2.726.22,5.445.506,8.163.8,1.163.127,2.329.228,3.492.363.331.039.4-.064.4-.379q-.014-11.081-.013-22.162a.926.926,0,0,1,.306-.722q4.044-4.025,8.078-8.06c.2-.2.179-.289-.006-.474q-3.624-3.609-7.237-7.228c-.21-.209-.227-.312,0-.533,2.4-2.385,4.79-4.788,7.193-7.174.228-.227.264-.339.01-.579-2.464-2.337-4.818-4.786-7.239-7.167-.213-.209-.249-.32-.013-.554,2.412-2.393,4.808-4.8,7.218-7.2.2-.2.224-.292.01-.505Q708,44.137,703.969,40.1a.705.705,0,0,1-.238-.541q.007-19.709,0-39.418c0-.035.005-.069.011-.139a3.605,3.605,0,0,1,.759.5c1.828,1.273,3.586,2.645,5.454,3.861.9.588,1.876,1.056,2.778,1.646a7.872,7.872,0,0,1,3.541,5.281,13.914,13.914,0,0,1,.276,2.711q-.042,16.8-.091,33.606-.03,17.9-.025,35.8,0,16.874,0,33.747c0,1.34-.112,2.681-.168,4.022-.01.232-.063.3-.334.245-.909-.172-1.83-.284-2.743-.437s-1.8-.358-2.708-.478c-.946-.125-1.889-.281-2.825-.448-1.148-.205-2.3-.377-3.452-.555-2.2-.34-4.4-.622-6.611-.886q-3.245-.387-6.5-.665c-2.253-.193-4.508-.342-6.767-.435-3.3-.135-6.606-.188-9.91-.084-2.863.091-5.719.263-8.569.546a103.859,103.859,0,0,0-11.39,1.757,73.482,73.482,0,0,0-18.353,6.182,66.1,66.1,0,0,0-12.888,8.907,82.778,82.778,0,0,0-9.1,9.277,29.007,29.007,0,0,1-2.811,2.932l-.069-.055" transform="translate(-433.928)" fill="#026399"/>
    <path id="Path_3" data-name="Path 3" d="M607.963,156.373c.289-.8.593-1.6.864-2.406a47.326,47.326,0,0,1,5.756-11.777,51.611,51.611,0,0,1,22.22-18.278,81.8,81.8,0,0,1,11.558-3.892,139.7,139.7,0,0,1,15.512-3.27q5.839-.909,11.727-1.417l.069-.006c.5-.062.5-.062.5-.553q.175-13.81.161-27.621-.015-12.176-.047-24.352c-.016-5.508-.053-11.016-.074-16.524q-.029-7.88-.043-15.759c0-.127,0-.254,0-.433.336.178.641.343.949.5a63.423,63.423,0,0,1,6.2,3.62,15.174,15.174,0,0,1,2.962,2.424,5.847,5.847,0,0,1,1.585,3.716c.162,4.1.179,8.2.234,12.307.146,10.912.138,21.824.085,32.736-.031,6.4-.092,12.8-.144,19.2q-.072,8.818-.153,17.636c0,.487-.006.974.01,1.461.007.223-.066.267-.282.249a134.124,134.124,0,0,0-16.472-.205c-2.56.105-5.118.232-7.672.443a81.762,81.762,0,0,0-27.376,6.692,61.582,61.582,0,0,0-22.02,16.761A47.267,47.267,0,0,0,610.352,153c-.663,1.061-1.343,2.11-2.091,3.114-.075.1-.153.2-.23.3l-.068-.034" transform="translate(-431.602 -21.359)" fill="#026399"/>
    <path id="Path_4" data-name="Path 4" d="M915.558,158.712c-.063-.06-.113-.106-.162-.155q-2.694-2.693-5.39-5.383c-.14-.139-.141-.212,0-.352q2.7-2.686,5.387-5.387c.139-.14.214-.143.354,0q2.686,2.7,5.387,5.387c.138.137.146.211,0,.352q-2.7,2.686-5.39,5.383c-.055.055-.121.1-.187.156" transform="translate(-645.953 -104.592)" fill="#026399"/>
    <path id="Path_5" data-name="Path 5" d="M915.752,253.873c.067.059.13.108.185.163q2.669,2.667,5.339,5.333c.141.14.177.216.014.379q-2.691,2.669-5.363,5.358c-.15.151-.222.115-.351-.014q-2.664-2.673-5.339-5.333c-.143-.142-.173-.219-.011-.379q2.678-2.659,5.34-5.332c.057-.057.117-.109.187-.173" transform="translate(-646.106 -180.228)" fill="#026399"/>
    <path id="Path_6" data-name="Path 6" d="M915.593,211.938c-.182-.153-.36-.282-.514-.435q-2.561-2.553-5.117-5.109c-.125-.124-.1-.189.008-.3q2.722-2.711,5.433-5.433c.206-.207.278-.008.375.088q2.169,2.158,4.33,4.323c.336.336.669.674,1.011,1,.115.111.167.18.021.326q-2.71,2.7-5.406,5.41c-.046.046-.1.088-.141.126" transform="translate(-645.935 -142.387)" fill="#026399"/>
    <path id="Path_7" data-name="Path 7" d="M611.218,506.707c-.022.029-.037.086-.087.048s0-.069.018-.1l.069.055" transform="translate(-433.838 -359.68)" fill="#026399"/>
    <path id="Path_8" data-name="Path 8" d="M1489.855,723.124c.192-.365.6-.448.9-.674a13.764,13.764,0,0,0,3.816-4.255,18.448,18.448,0,0,0,1.749-4.121,22.471,22.471,0,0,0,.923-5.613,1.43,1.43,0,0,0-.041-.617c-.128-.144-.3-.088-.452-.09-1.787-.018-3.576.038-5.363-.052a10.821,10.821,0,0,1-6.742-3.5,11.182,11.182,0,0,1-2.192-3.566,10.456,10.456,0,0,1-.6-4.884,10.772,10.772,0,0,1,.554-3.185,11.068,11.068,0,0,1,1.635-2.872,11.215,11.215,0,0,1,3.993-3.155,12.332,12.332,0,0,1,4.188-1.114h1.256l.419.028a1.95,1.95,0,0,0,.834.1,11.424,11.424,0,0,1,4.605,1.675,10.4,10.4,0,0,1,3.872,5.224,23.748,23.748,0,0,1,1.234,7.455,2.093,2.093,0,0,0,.05.688c.145.222.373.129.562.129q4.614.011,9.229,0c.168,0,.375.091.5-.12-.064-.595-.128-1.19-.19-1.785a17.953,17.953,0,0,1,.019-4.214,10.525,10.525,0,0,1,2.192-4.981,10.825,10.825,0,0,1,6.769-4.127,13.182,13.182,0,0,1,2.9-.186,2.087,2.087,0,0,0,.836.1,11.44,11.44,0,0,1,6.8,3.718,10.949,10.949,0,0,1,2.684,5.76c-.089.386.107.743.117,1.119v1.112a3.85,3.85,0,0,0-.122,1.117,10.277,10.277,0,0,1-2.524,5.612,11.07,11.07,0,0,1-8.711,3.926c-6.7.019-13.407.005-20.111.006-.325,0-.65.018-.974,0-.287-.013-.394.1-.437.387-.108.732-.241,1.461-.4,2.183a20.439,20.439,0,0,1-2.862,7.1,12.047,12.047,0,0,1-7.779,5.287,7.058,7.058,0,0,0-1.742.37Zm4.7-21.927c.835,0,1.669-.007,2.5,0,.269,0,.364-.1.361-.363-.015-1.573.035-3.149-.04-4.718a4.421,4.421,0,0,0-4.522-4.16,4.565,4.565,0,0,0-4.375,6,4.385,4.385,0,0,0,4.4,3.234c.556,0,1.112,0,1.668,0m26.645-4.788a4.249,4.249,0,0,0,4.266,4.3,4.354,4.354,0,0,0,4.32-4.2,4.489,4.489,0,0,0-4.263-4.448,4.381,4.381,0,0,0-4.322,4.357" transform="translate(-1051.95 -486.512)" fill="#026399"/>
    <path id="Path_9" data-name="Path 9" d="M.143,621.841a3.284,3.284,0,0,0-.036-.477,4.871,4.871,0,0,1-.01-1.987,1.426,1.426,0,0,0,.049-.614,13.567,13.567,0,0,1,.777-3.206,13.312,13.312,0,0,1,5.944-6.64,20.671,20.671,0,0,1,6.832-2.282.932.932,0,0,0,.553-.1l.282-.026a1.8,1.8,0,0,0,.836-.11l.556-.033c.231,0,.481.112.671-.117.053-1.066-.125-2.12-.175-3.181-.055-1.155-.132-2.31-.246-3.46a.727.727,0,0,1,.517-.835c1.964-.832,3.849-1.835,5.814-2.666a8.8,8.8,0,0,0,1.191-.595.687.687,0,0,1,.4-.063,1.1,1.1,0,0,1,.039.612q-.314,5.264-.638,10.527-.145,2.39-.287,4.779-.3,5.161-.6,10.322a1.86,1.86,0,0,0,.014.689c.2.247.471.124.7.125q5.229.015,10.459.007a2.73,2.73,0,0,0,.483-.016c.192-.034.182-.167.1-.307-.12-.844-.392-1.656-.556-2.49-.157-.8-.268-1.6-.433-2.4a38.827,38.827,0,0,0-.819-4.015,15.353,15.353,0,0,1-.318-1.561c-.133-.646-.273-1.294-.384-1.94a11.9,11.9,0,0,1-.346-2.443.121.121,0,0,0,.106-.116q2.589-1.467,5.175-2.939a2.547,2.547,0,0,1,.24-.1c.427-.191.514-.165.593.27.153.84.287,1.684.43,2.527q.872,5.153,1.745,10.306.392,2.319.784,4.638a1.05,1.05,0,0,0,.138.46c.1.2.281.127.427.127q4.886.008,9.771,0c.126,0,.285.05.345-.135.045-.832.106-1.663.134-2.5q.245-7.187.479-14.375.344-10.07.7-20.139c.076-2.176.167-4.351.235-6.527a.65.65,0,0,1,.358-.649c1.794-.948,3.582-1.91,5.377-2.857.191-.1.379-.273.637-.174,0,.665.018,1.334,0,2q-.182,5.8-.379,11.6-.334,10.139-.668,20.279-.2,6.146-.4,12.293a4.5,4.5,0,0,0,.009,1.038c.16.257.417.136.626.138q1.905.011,3.811-.016a4.183,4.183,0,0,0,1.237-.091l1.514-.044a3.259,3.259,0,0,0,1.254-.107l.556-.038a1.145,1.145,0,0,0,.7-.1l.414-.04a.832.832,0,0,0,.556-.1,11.785,11.785,0,0,0,2.6-.657c.373-.127.4-.27.144-.632A16.764,16.764,0,0,1,69.579,618a6.274,6.274,0,0,1-.591-2.031,11.994,11.994,0,0,1,.18-3.52,9.63,9.63,0,0,1,.655-2.009,14.2,14.2,0,0,1,1.329-2.354,15.413,15.413,0,0,1,2.585-2.921,17.73,17.73,0,0,1,2.9-2.041,9.9,9.9,0,0,1,2.111-.861.65.65,0,0,0,.4-.239,14.276,14.276,0,0,0-4.953-3.42c2.056-.776,3.949-1.492,5.843-2.2.632-.238,1.281-.436,1.9-.707a1.139,1.139,0,0,1,.851-.026,13.364,13.364,0,0,1,4.7,2.491,25.323,25.323,0,0,1,5.8,6.794,32.981,32.981,0,0,1,3.159,6.92,27.3,27.3,0,0,1,1.423,7.428,13.258,13.258,0,0,1-1.327,6.763,7.352,7.352,0,0,1-4.273,3.685c-.3.1-.553.326-.891.3a.775.775,0,0,0-.559.124l-.137.015H89.575l-.273-.016a4.556,4.556,0,0,0-1.531-.133H87.76a2.643,2.643,0,0,0-1.109-.129l-.137-.012a1.511,1.511,0,0,0-.834-.128l-.017,0a1.568,1.568,0,0,0-.821-.143,13.414,13.414,0,0,1-3.129-.763,20.79,20.79,0,0,1-4.876-2.362c-.281-.182-.531-.412-.8-.62-.169-.309-.355-.2-.544-.023-.965.476-1.948.921-2.89,1.438-.643.353-1.341.548-2,.842a16.078,16.078,0,0,1-3.026.935,1.088,1.088,0,0,0-.691.132h-.01a2,2,0,0,0-.965.137H65.9a6.412,6.412,0,0,0-1.655.142h-.014c-1.6.019-3.2.053-4.8.054q-10.162.009-20.325,0-12.947,0-25.894,0c-.95,0-1.9-.036-2.85-.056h-.012a2.79,2.79,0,0,0-1.106-.132l-.067-.018-.069.005a1.1,1.1,0,0,0-.7-.124l-.065-.019-.068,0a.734.734,0,0,0-.563-.124,10.791,10.791,0,0,1-4.855-2.131,7.712,7.712,0,0,1-1.9-2.282,5.875,5.875,0,0,1-.814-2.813m12.3.857,3.124-.178c.577-.033.58-.034.615-.578q.267-4.157.531-8.314c.028-.44.025-.448-.453-.456a13.869,13.869,0,0,0-2.839.185,10.924,10.924,0,0,0-4.36,1.709,4.88,4.88,0,0,0-2.118,2.91,3.4,3.4,0,0,0,2.475,4.432,8.53,8.53,0,0,0,3.027.292m71.277-12.739a4.48,4.48,0,0,0-.529-2.471,1.743,1.743,0,0,0-2.893-.553,11.838,11.838,0,0,0-3.538,4.823,6.562,6.562,0,0,0-.492,2.087A3.854,3.854,0,0,0,77.431,617c.229.224.426.312.716.092s.628-.393.935-.6a12.067,12.067,0,0,0,3.588-3.538,6.356,6.356,0,0,0,1.052-2.99m-1.993,10.3a16.178,16.178,0,0,0,5.844,2.632,3.871,3.871,0,0,0,2.062-.071,1.346,1.346,0,0,0,1.032-1.579c-.081-.875-.169-1.752-.3-2.62a10.517,10.517,0,0,0-.75-2.949c-.468-.991-1.022-1.147-1.934-.551a10.041,10.041,0,0,0-1.568,1.369,21.844,21.844,0,0,1-4.286,3.625c-.035.021-.052.075-.1.144" transform="translate(0 -408.295)" fill="#026399"/>
    <path id="Path_10" data-name="Path 10" d="M1207.556,652.2l6.239-3.229a2.55,2.55,0,0,1,.166,1.062c.108,2.429.207,4.858.309,7.287q.334,7.911.668,15.823c.079,1.9.145,3.795.214,5.692a3.628,3.628,0,0,1-.031.41c-.3,0-.6-.011-.9-.011h-39.927q-23.024,0-46.048,0c-.973,0-1.945-.034-2.917-.053l-.068-.016-.069.007a2.639,2.639,0,0,0-1.111-.135h-.01a1.133,1.133,0,0,0-.692-.124,10.228,10.228,0,0,1-3.757-1.1,7.85,7.85,0,0,1-3.727-3.477,7.326,7.326,0,0,1-.837-2.891,12.476,12.476,0,0,1,3.855-10.655,14.68,14.68,0,0,1,3.943-2.726,20.774,20.774,0,0,1,5.416-1.667c.409-.075.821-.127,1.231-.19a1.893,1.893,0,0,0,.833-.107l.559-.034c.152,0,.306.014.458,0s.251-.078.2-.254l-.507-6.93.081-.161c1.4-.655,2.8-1.315,4.2-1.964q1.649-.764,3.306-1.509c.422-.191.47-.161.443.288q-.224,3.743-.458,7.486-.165,2.7-.328,5.407-.335,5.581-.669,11.161c-.05.827-.1,1.654-.144,2.481.149.219.38.135.574.135q4.7.011,9.4,0c.143,0,.334.087.417-.13.052-1.295-.12-2.58-.178-3.87-.091-2.052-.252-4.1-.354-6.154-.051-1.014-.188-2.024-.15-3.042.068-.021.119-.057.108-.139l4.682-2.723c.095-.055.194-.1.292-.151.63-.322.715-.27.75.445q.372,7.445.748,14.891a2.137,2.137,0,0,0,.106.75c.052.139.174.127.286.127h4.574c.113,0,.234.011.288-.126a17.6,17.6,0,0,0,.254-2.757c.293-3.739.55-7.481.82-11.221.052-.716.115-1.431.149-2.148a.663.663,0,0,1,.434-.618c1.78-.918,3.548-1.859,5.324-2.782.186-.1.368-.282.659-.133-.056,1.016-.108,2.054-.171,3.091-.118,1.964-.246,3.928-.363,5.893q-.3,5.061-.583,10.124c-.01.191-.194.385-.02.582a.387.387,0,0,0,.319.1h3.61c.113,0,.234.01.293-.123a18.581,18.581,0,0,0,.266-2.751c.28-3.389.537-6.78.8-10.171.163-2.122.33-4.245.464-6.369a.845.845,0,0,1,.476-.816c1.922-.917,3.782-1.954,5.679-2.919a.77.77,0,0,1,.231-.026,7.805,7.805,0,0,1-.029,1.722c-.159,2.447-.332,4.894-.5,7.341-.225,3.347-.465,6.694-.658,10.043a33.887,33.887,0,0,0-.19,3.943c.1.185.285.123.434.123q4.755.007,9.51,0c.128,0,.285.047.355-.127.061-1.436-.126-2.862-.189-4.293-.086-1.941-.226-3.88-.351-5.819a11.021,11.021,0,0,0-.266-2.664c-.086-.274.149-.419.349-.532,1.092-.615,2.193-1.216,3.284-1.834.5-.284.983-.6,1.484-.89a1.556,1.556,0,0,1,.794-.285c.054.885.116,1.773.161,2.662q.311,6.169.617,12.338c.022.438.081.874.122,1.31.042.148.167.132.277.132q2.423,0,4.846,0c.11,0,.235.017.277-.132-.059-1.134-.3-2.243-.471-3.361-.473-3.157-.97-6.311-1.458-9.465-.173-1.12-.334-2.243-.536-3.358-.046-.254,0-.369.214-.475,1.949-.983,3.894-1.974,5.845-2.953.381-.191.411-.167.463.247q.489,3.891.971,7.784.528,4.236,1.058,8.472c.13,1.032.265,2.064.4,3.1.044.139.159.146.277.146l3.753,0a.2.2,0,0,0,.215-.128c.057-1.3-.127-2.582-.191-3.873-.093-1.87-.236-3.738-.36-5.606q-.341-5.121-.684-10.241l.081-.163m-79.921,20.181c.716-.041,1.8-.1,2.89-.164.5-.029.517-.031.56-.552.065-.784.112-1.569.161-2.353q.185-2.978.363-5.955c.028-.473.013-.479-.485-.486a13.676,13.676,0,0,0-2.768.183,10.488,10.488,0,0,0-4.747,2,4.9,4.9,0,0,0-1.665,2.34,3.465,3.465,0,0,0,2.5,4.746,9.182,9.182,0,0,0,3.191.247" transform="translate(-791.555 -457.997)" fill="#026399"/>
    <path id="Path_11" data-name="Path 11" d="M595.068,678.194a4.276,4.276,0,0,1,.506-1.62c.448-1.353.985-2.678,1.492-4.011a4.776,4.776,0,0,1,.648-1.491c.255,0,.509.005.764.005h34.4c.439,0,.879-.006,1.318-.009a8.1,8.1,0,0,1,6.709,5.44,6.324,6.324,0,0,1,.4,2.371c-.014.88.007,1.76.012,2.64-.014.093-.02.2.086.227a1.668,1.668,0,0,0,.41.042q4.708,0,9.417,0a1.568,1.568,0,0,0,.41-.039c.1-.028.089-.14.073-.231q-.16-2.877-.321-5.754-.2-3.5-.391-7a1.089,1.089,0,0,1,.028-.2.106.106,0,0,0,.108-.108q2.425-1.39,4.85-2.781c.212-.122.411-.267.616-.4a.156.156,0,0,0,.159.082c.168,1.2.148,2.4.219,3.6.188,3.189.323,6.382.486,9.573.053,1.039.126,2.078.191,3.116.148.284.411.14.616.142,1.315.014,2.63.008,3.945.007.231,0,.462,0,.692-.006s.271-.132.18-.323q-1.136-7.373-2.271-14.745c-.025-.16-.035-.322-.057-.483-.054-.385-.291-.83-.057-1.142.195-.26.636-.327.954-.5,1.49-.83,3.066-1.493,4.543-2.35a2.547,2.547,0,0,1,.352-.166c.511-.195.543-.2.606.3.292,2.342.575,4.685.865,7.027q.524,4.236,1.056,8.472c.16,1.262.264,2.531.5,3.783.161.255.414.128.622.13,1.079.013,2.158.011,3.237,0,.17,0,.46.106.408-.267-.1-1.618-.187-3.236-.291-4.853-.11-1.71-.238-3.418-.35-5.128-.189-2.888-.388-5.776-.55-8.665-.071-1.255-.218-.97.874-1.524,1.6-.811,3.18-1.653,4.763-2.492.216-.115.4-.283.7-.212.043.8.1,1.605.13,2.412.16,3.864.31,7.728.474,11.592.21,4.951.432,9.9.637,14.853.018.427.24.965-.075,1.26-.276.258-.8.083-1.211.083q-18.337.006-36.674,0H592.026c-.917,0-.907,0-.568-.879.665-1.733,1.317-3.47,1.976-5.205.124-.327.254-.652.382-.978.023,0,.046.007.069.007h40.085l.557,0a.2.2,0,0,0,.215-.128,2.557,2.557,0,0,0-.663-1.9,3.675,3.675,0,0,0-2.494-1.464,1.78,1.78,0,0,0-1.018-.111q-17.3-.008-34.594,0c-.3,0-.6.01-.9.016" transform="translate(-419.735 -467.569)" fill="#026399"/>
    <path id="Path_12" data-name="Path 12" d="M395.456,575.059a17.409,17.409,0,0,1-.307,3.172q-.522,3.846-1.341,7.644a109.627,109.627,0,0,1-3.787,13.656,74.8,74.8,0,0,1-4.4,10.118,10.631,10.631,0,0,1-.8,1.437.9.9,0,0,0-.015,1.128q1.424,2.694,2.795,5.416a78.11,78.11,0,0,1,4.543,10.635c.058.177.086.356.137.532.206.712.209.712-.547.712q-12.8,0-25.6,0c-.826,0-.711.132-.714-.748-.008-2.084-.006-4.167-.007-6.251.285-.152.654.091.91-.2a21.889,21.889,0,0,0,4.421-2.781,24.182,24.182,0,0,0,3.216-3.115,32.124,32.124,0,0,0,2.021-2.507c.623-.894,1.228-1.8,1.838-2.7a.421.421,0,0,0-.043-.547c-.488-.7-.936-1.438-1.391-2.165-.793-1.266-1.593-2.527-2.366-3.8-.969-1.6-1.959-3.192-2.919-4.8-.914-1.531-1.85-3.05-2.757-4.588-.732-1.243-1.47-2.485-2.229-3.711-.57-.921-1.1-1.864-1.66-2.793-.589-.986-1.149-2-1.729-2.988-.614-1.05-1.205-2.117-1.841-3.156A16.459,16.459,0,0,1,359.96,581c-.1-.209-.13-.3.035-.449.443-.4.885-.8,1.316-1.21,1.386-1.323,2.767-2.652,4.184-4.012a6.452,6.452,0,0,1,.833,1.554c.9,1.852,1.781,3.714,2.658,5.577,1.608,3.414,3.309,6.782,5.039,10.135,1.952,3.784,3.938,7.552,6.085,11.231a6.272,6.272,0,0,0,.719,1.166,4.314,4.314,0,0,0,.846-1.662c.76-1.886,1.447-3.8,2.032-5.752.59-1.964,1.161-3.933,1.615-5.936.19-.839.311-1.7.574-2.51a19.482,19.482,0,0,0,.606-2.613c.477-2.651.956-5.3,1.178-7.993a.566.566,0,0,1,.434-.569c1.754-.735,3.523-1.433,5.286-2.145.638-.258,1.277-.511,1.915-.766l.14.016M384.73,622.395c-1.131-2.049-2.2-4-3.386-5.96a36.973,36.973,0,0,1-5.692,5.96Z" transform="translate(-255.484 -408.232)" fill="#026399"/>
    <path id="Path_13" data-name="Path 13" d="M911.959,644.625l-.138.008c-.524,0-1.047.012-1.571.008-.17,0-.372.083-.488-.132a16.606,16.606,0,0,0,2.761-2.308,18.293,18.293,0,0,0,2.175-2.95,19.4,19.4,0,0,0,2.477-10.011c-.076-3.658-.373-7.3-.721-10.941-.187-1.957-.361-3.916-.59-5.869a1,1,0,0,1,.613-1.134c1.881-1.067,3.745-2.166,5.614-3.253.02-.012.034-.032.054-.044.94-.561,1.026-.5,1.093.592q.314,5.162.651,10.322c.074,1.154.156,2.307.235,3.46.112.225.324.139.492.14q4.733.009,9.466,0c.142,0,.334.089.416-.13.061-.9,0-1.8-.026-2.706q-.187-6.7-.389-13.4-.316-10.658-.636-21.316c-.06-2.037-.111-4.074-.177-6.11a.609.609,0,0,1,.335-.656c1.8-.946,3.584-1.906,5.378-2.854.193-.1.378-.27.634-.181a.755.755,0,0,1,.066.464q.216,9.166.429,18.333.308,12.882.624,25.763c.077,3.264.128,6.528.191,9.792-.192.057-.4-.021-.589.083-.255-.007-.509-.019-.764-.019H925.11c-.209,0-.417,0-.626,0-.646.011-.653.011-.664.636a28.847,28.847,0,0,1-.436,4.9,13.016,13.016,0,0,1-1.762,4.8,9.631,9.631,0,0,1-4.867,3.739c-.656.247-1.338.391-2.01.576a.753.753,0,0,0-.562.121l-.068,0-.066.019a1.588,1.588,0,0,0-.828.13h-.012a3.405,3.405,0,0,0-1.25.133" transform="translate(-645.854 -408.296)" fill="#026399"/>
    <path id="Path_14" data-name="Path 14" d="M1042.174,629.93c-.348-.007-.7-.006-1.043-.023a1.882,1.882,0,0,1-1.651-1.112,6.024,6.024,0,0,1-.621-2.219c-.42-3.635-.051-7.265.029-10.9.036-1.62.135-3.239.193-4.859q.314-8.644.62-17.289c.176-4.837.365-9.674.529-14.511a.8.8,0,0,1,.488-.789c1.814-.96,3.616-1.943,5.419-2.924.344-.187.543-.2.523.286-.093,2.291-.149,4.583-.225,6.875-.067,2.014-.149,4.027-.216,6.041q-.307,9.166-.609,18.332c-.171,5.069-.354,10.138-.519,15.207-.032.995-.006,1.992-.012,2.988a7.617,7.617,0,0,0,.156,1.587,2.06,2.06,0,0,0,1.489,1.617,19.461,19.461,0,0,1-2.04,1c-.6.218-1.2.4-1.815.57a1.272,1.272,0,0,0-.7.126" transform="translate(-737.362 -408.334)" fill="#026399"/>
    <path id="Path_15" data-name="Path 15" d="M507.854,629.936c-.3,0-.6-.023-.9,0a1.925,1.925,0,0,1-1.894-1.226,3.892,3.892,0,0,1-.5-1.771c-.023-.6-.127-1.2-.179-1.8a60.782,60.782,0,0,1,.057-6.943c.046-1.667.138-3.332.2-5q.383-10.519.761-21.037c.16-4.328.34-8.654.49-12.982a.977.977,0,0,1,.628-.979c1.435-.732,2.825-1.549,4.236-2.329.368-.2.758-.373,1.113-.6a.563.563,0,0,1,.409-.076c0,.544.016,1.092,0,1.638q-.175,5.173-.362,10.346-.332,9.582-.658,19.164-.166,4.9-.322,9.791-.125,3.958-.234,7.916a13.472,13.472,0,0,0,.152,2.354,1.954,1.954,0,0,0,1.564,1.822,14.4,14.4,0,0,1-3.849,1.568,1.186,1.186,0,0,0-.7.128" transform="translate(-358 -408.343)" fill="#026399"/>
    <path id="Path_16" data-name="Path 16" d="M1506.3,627.969a3.929,3.929,0,0,0-2.845,2.09,1.167,1.167,0,0,0-.079.4.131.131,0,0,0-.066.175,2.883,2.883,0,0,0,.876,2.95,3.277,3.277,0,0,0,2.131.8,1.876,1.876,0,0,0,.808.1c.754.008,1.508,0,2.262.006.173,1.068.2,2.147.274,3.224-.207.013-.414.039-.62.039q-6.618,0-13.236,0a1.715,1.715,0,0,1-.618-.046c0-.023-.008-.052,0-.068a30.479,30.479,0,0,1,1.8-3.161l3.676.008a2.239,2.239,0,0,0,.342-.019.057.057,0,0,0,.03-.1,1.148,1.148,0,0,0-.168-.1,3.344,3.344,0,0,1-1.789-1.5,5.5,5.5,0,0,1-.665-3.881,2.692,2.692,0,0,1,.53-1.08,6.332,6.332,0,0,1,3.685-2.542,8.955,8.955,0,0,1,2.873-.342,1.513,1.513,0,0,1,.95.337c.933.772,1.881,1.528,2.93,2.376a15.044,15.044,0,0,0-2.649.211.448.448,0,0,0-.44.11" transform="translate(-1061.452 -443.644)" fill="#026399"/>
    <path id="Path_17" data-name="Path 17" d="M355.87,525.2l1.681,0c.509.165.767.646,1.181.937a6.555,6.555,0,0,1,1.32,1.3,12.7,12.7,0,0,0-1.346.008,4.027,4.027,0,0,0-2.841,1.293,2.614,2.614,0,0,0-.444,2.651,2.157,2.157,0,0,0,2.1,1.5,1.4,1.4,0,0,0,.8.118c.667.01,1.333,0,2,0a12.929,12.929,0,0,1,.145,2.695q-5.468-.007-10.937-.016a2.935,2.935,0,0,1-.893-.051,14.253,14.253,0,0,0,.851-1.655,4.259,4.259,0,0,1,.675-.99c.554.005,1.108.016,1.662.015.537,0,1.075.017,1.732-.02-.228-.174-.315-.291-.477-.247a2.9,2.9,0,0,1-1.233-1.161,4.376,4.376,0,0,1-.509-3.3,2.6,2.6,0,0,1,.76-1.268,5.945,5.945,0,0,1,3.494-1.773c.091-.017.183-.028.274-.042" transform="translate(-247.506 -372.847)" fill="#026399"/>
    <path id="Path_18" data-name="Path 18" d="M815.958,626.614a2.8,2.8,0,0,1,1.773-2.811,3.386,3.386,0,0,1,4.429,1.357,3.3,3.3,0,0,1-.936,4.3,3.2,3.2,0,0,1-3.03.541,3.037,3.037,0,0,1-2.236-3.251c0-.046,0-.093,0-.139" transform="translate(-579.257 -442.606)" fill="#026399"/>
    <path id="Path_19" data-name="Path 19" d="M1158.386,603.69a3.355,3.355,0,0,1,1.423,6,3.4,3.4,0,0,1-1.285.582l-1.251.011a3.06,3.06,0,0,1-2.756-3.009,3.55,3.55,0,0,1,.262-1.711,3.083,3.083,0,0,1,2.63-1.864l.977-.007" transform="translate(-819.607 -428.569)" fill="#026399"/>
    <path id="Path_20" data-name="Path 20" d="M843.811,626.717a3.232,3.232,0,0,1,3.464-3.21,3.33,3.33,0,0,1,3.184,3.345,3.388,3.388,0,0,1-3.9,3.3,3.307,3.307,0,0,1-2.748-3.435" transform="translate(-599.029 -442.632)" fill="#026399"/>
    <path id="Path_21" data-name="Path 21" d="M87.329,788.72A3.452,3.452,0,0,1,85,787.141a4.014,4.014,0,0,1-.452-1.372,2.964,2.964,0,0,1,.3-1.833,3.038,3.038,0,0,1,2.485-1.87l.274-.042a1.147,1.147,0,0,0,.561,0,3.521,3.521,0,0,1,2.941,2.56,3.4,3.4,0,0,1-1.188,3.376,3.233,3.233,0,0,1-1.2.63,7.813,7.813,0,0,0-1.4.131" transform="translate(-59.991 -555.171)" fill="#026399"/>
    <path id="Path_22" data-name="Path 22" d="M42.551,610.207a3.026,3.026,0,0,1-2.664-2.769,3.317,3.317,0,0,1,.967-2.989,3.2,3.2,0,0,1,2.305-.856,3.356,3.356,0,0,1,3.305,3.815,3.409,3.409,0,0,1-2.661,2.8H42.551" transform="translate(-28.294 -428.5)" fill="#026399"/>
    <path id="Path_23" data-name="Path 23" d="M71.836,603.7a3.336,3.336,0,0,1,2.594,2.473,3.412,3.412,0,0,1-1.565,3.777,3.6,3.6,0,0,1-1.029.339l-1.114,0a3.064,3.064,0,0,1-2.751-3.01,3.551,3.551,0,0,1,.259-1.708,3.077,3.077,0,0,1,2.628-1.866l.978,0" transform="translate(-48.251 -428.578)" fill="#026399"/>
    <path id="Path_24" data-name="Path 24" d="M1185.37,610.27a1.864,1.864,0,0,1-1.3-.482,2.863,2.863,0,0,1-1.316-2.2c-.012-.254-.025-.508-.035-.762a3.063,3.063,0,0,1,2.52-3.08c.091-.016.181-.039.271-.059l.837.008a3.326,3.326,0,0,1,1.093,6.281,1.626,1.626,0,0,1-.817.3l-1.252-.008" transform="translate(-839.628 -428.568)" fill="#026399"/>
    <path id="Path_25" data-name="Path 25" d="M115.283,788.583a3.085,3.085,0,0,1-2.346-2.521,4.953,4.953,0,0,1,.066-1.777,3.024,3.024,0,0,1,2.424-2.2c.135-.028.273-.044.41-.066a1.136,1.136,0,0,0,.561,0,3.361,3.361,0,0,1,3.057,3.445,3.562,3.562,0,0,1-1.561,2.764,3.062,3.062,0,0,1-.941.364,8.091,8.091,0,0,1-1.67-.009" transform="translate(-80.142 -555.168)" fill="#026399"/>
    <path id="Path_26" data-name="Path 26" d="M833.8,606.01c-1.477.1-2.72-1.46-2.666-3.075a2.876,2.876,0,0,1,3.037-2.889,3.069,3.069,0,0,1,2.864,3.061,2.994,2.994,0,0,1-3.236,2.9" transform="translate(-590.032 -425.979)" fill="#026399"/>
  </g>
</svg>
